<?xml version="1.0" standalone="no"?>
<!DOCTYPE svg PUBLIC "-//W3C//DTD SVG 20010904//EN"
 "http://www.w3.org/TR/2001/REC-SVG-20010904/DTD/svg10.dtd">
<svg version="1.0" xmlns="http://www.w3.org/2000/svg"
 width="1280.000000pt" height="1280.000000pt" viewBox="0 0 1280.000000 1280.000000"
 preserveAspectRatio="xMidYMid meet">

<g transform="translate(0.000000,1280.000000) scale(0.100000,-0.100000)"
fill="#000000" stroke="none">
<path d="M3730 10935 l0 -265 2670 0 2670 0 0 265 0 265 -2670 0 -2670 0 0
-265z"/>
<path d="M2130 9335 l0 -265 4270 0 4270 0 0 265 0 265 -4270 0 -4270 0 0
-265z"/>
<path d="M1070 4800 l0 -3200 5330 0 5330 0 0 3200 0 3200 -5330 0 -5330 0 0
-3200z m10130 0 l0 -2670 -4800 0 -4800 0 0 2670 0 2670 4800 0 4800 0 0
-2670z"/>
<path d="M5330 4800 c0 -1052 3 -1590 10 -1590 16 0 2645 1580 2645 1590 0 10
-2629 1590 -2645 1590 -7 0 -10 -538 -10 -1590z"/>
</g>
</svg>
